<svg id="Layer_1" data-name="Layer 1" xmlns="http://www.w3.org/2000/svg" viewBox="0 0 964.39 256.85"><defs><style>.cls-1{fill:#fbb03b;}.cls-2{fill:#f27029;}.cls-3{fill:#00b5d2;}.cls-4{fill:#02a9b4;}.cls-5{fill:#028da3;}.cls-6{fill:#f69220;}.cls-7{fill:#f48220;}.cls-8{fill:#ffc114;}.cls-9{fill:#00a7ca;}.cls-10{fill:#f37526;}.cls-11{fill:#f79920;}.cls-12{fill:#f9a11d;}.cls-13,.cls-34,.cls-35{fill:none;}.cls-14{fill:#5ac8e8;}.cls-15{fill:#078ba9;}.cls-16{fill:#d93627;}.cls-17{fill:#00a6af;}.cls-18{fill:#ee4237;}.cls-19{fill:#f26f28;}.cls-20{fill:#fbb216;}.cls-21{fill:#317888;}.cls-22{fill:#f89e1b;}.cls-23{fill:#10abb6;}.cls-24{fill:#ed2037;}.cls-25{fill:#ec5a2e;}.cls-26{fill:#009bb1;}.cls-27{fill:#ed1f44;}.cls-28{fill:#8e1832;}.cls-29{fill:#ed203a;}.cls-30{fill:#ee4456;}.cls-31{fill:#d51e43;}.cls-32{fill:#ed1e4a;}.cls-33{fill:#e81d3c;}.cls-34{stroke:#d51e43;}.cls-34,.cls-35{stroke-linecap:round;stroke-linejoin:round;stroke-width:0;}.cls-35{stroke:#c42042;}.cls-36{fill:#3ac4eb;}.cls-37{fill:#20334e;}</style></defs><polygon class="cls-1" points="964.39 256.85 553.66 256.85 553.66 192.51 926.89 192.51 964.39 256.85"/><path class="cls-1" d="M236.71,570.37H206.37a21,21,0,0,0-1.7-6.83,16.17,16.17,0,0,0-3.77-5.3,16.43,16.43,0,0,0-5.78-3.44,22.69,22.69,0,0,0-7.69-1.21,21.52,21.52,0,0,0-12.73,3.66,22.27,22.27,0,0,0-7.85,10.49,45.07,45.07,0,0,0-2.67,16.41q0,10.11,2.72,16.92a21.2,21.2,0,0,0,7.88,10.22,22,22,0,0,0,12.43,3.42,24.38,24.38,0,0,0,7.43-1.05,17,17,0,0,0,5.7-3,16.11,16.11,0,0,0,3.95-4.82,19.1,19.1,0,0,0,2.08-6.37l30.34.21a41,41,0,0,1-3.93,14.24,46.11,46.11,0,0,1-25,23.16,56.32,56.32,0,0,1-21.25,3.71,56.18,56.18,0,0,1-27.2-6.51,47,47,0,0,1-19-19.15q-7-12.65-7-30.94t7.1-31A47.63,47.63,0,0,1,159.66,534a55.94,55.94,0,0,1,26.91-6.48,61.81,61.81,0,0,1,19.2,2.85,46.43,46.43,0,0,1,15.39,8.31,41.59,41.59,0,0,1,10.66,13.42A49,49,0,0,1,236.71,570.37Z" transform="translate(-133.41 -470.88)"/><path class="cls-1" d="M250.27,529.05h29.92v57.68h.86l39.17-57.68h25.39V639.24H315.7V581.35h-.65l-39.81,57.89h-25Z" transform="translate(-133.41 -470.88)"/><path class="cls-1" d="M437.29,529.05v24.11H389.73v86.08H359.82V529.05Z" transform="translate(-133.41 -470.88)"/><path class="cls-1" d="M464.41,640.75V617.51h5.38a28.8,28.8,0,0,0,7.51-.78,7.94,7.94,0,0,0,4.3-2.8,17.84,17.84,0,0,0,2.61-5.68l1.08-3.23-41.33-76h30.57l23,44.77,17.65-44.77h30.13l-37.88,86.09A71.6,71.6,0,0,1,500,627.76a33.3,33.3,0,0,1-10.71,9.41q-6.4,3.58-15.87,3.58Z" transform="translate(-133.41 -470.88)"/><path class="cls-1" d="M555,639.24V529.05h47.56a45.54,45.54,0,0,1,21.47,4.84,35.19,35.19,0,0,1,14.31,13.62,39.94,39.94,0,0,1,5.11,20.5q0,11.84-5.24,20.5a34.92,34.92,0,0,1-14.69,13.34q-9.45,4.68-22,4.68H573.1V583.29h22.38a20.05,20.05,0,0,0,9-1.86,13.45,13.45,0,0,0,5.76-5.3,15.8,15.8,0,0,0,2-8.12,15.5,15.5,0,0,0-2-8.1,13.35,13.35,0,0,0-5.76-5.17,20.62,20.62,0,0,0-9-1.8H584.93v86.3Z" transform="translate(-133.41 -470.88)"/><path class="cls-1" d="M654.45,639.24V529.05h29.91V572.1H724V529.05h29.92V639.24H724v-43h-39.6v43Z" transform="translate(-133.41 -470.88)"/><path class="cls-1" d="M991.48,570.37H961.13a21,21,0,0,0-1.69-6.83,16.32,16.32,0,0,0-3.77-5.3,16.52,16.52,0,0,0-5.78-3.44,22.75,22.75,0,0,0-7.7-1.21,21.51,21.51,0,0,0-12.72,3.66,22.29,22.29,0,0,0-7.86,10.49A45.29,45.29,0,0,0,919,584.15q0,10.11,2.72,16.92a21.2,21.2,0,0,0,7.88,10.22A22,22,0,0,0,942,614.71a24.31,24.31,0,0,0,7.42-1.05,17.07,17.07,0,0,0,5.71-3,16.11,16.11,0,0,0,3.95-4.82,19.32,19.32,0,0,0,2.07-6.37l30.35.21a41,41,0,0,1-3.93,14.24,46.19,46.19,0,0,1-9.6,13.34A46.8,46.8,0,0,1,962.58,637a61.19,61.19,0,0,1-48.45-2.8,47,47,0,0,1-19-19.15q-7-12.65-7-30.94t7.11-31A47.57,47.57,0,0,1,914.43,534a55.87,55.87,0,0,1,26.9-6.48,61.88,61.88,0,0,1,19.21,2.85,46.43,46.43,0,0,1,15.39,8.31,41.56,41.56,0,0,1,10.65,13.42A49.18,49.18,0,0,1,991.48,570.37Z" transform="translate(-133.41 -470.88)"/><path class="cls-1" d="M1002,553.16V529.05h95.77v24.11h-33.14v86.08h-29.48V553.16Z" transform="translate(-133.41 -470.88)"/><polygon class="cls-2" points="684.27 144.43 691.29 144.43 690.46 135.81 685.11 135.81 684.27 144.43"/><polygon class="cls-3" points="688.58 104.23 688.3 100.14 688.14 100.14 687.74 100.14 687.28 100.14 686.99 104.23 688.58 104.23"/><polygon class="cls-4" points="690.46 129.97 689.62 123.02 686.49 123.02 685.89 123.43 685.49 126.82 689.88 129.97 690.46 129.97"/><polygon class="cls-2" points="685.49 126.82 685.11 129.97 689.88 129.97 685.49 126.82"/><polygon class="cls-5" points="685.94 123.02 685.89 123.43 686.49 123.02 685.94 123.02"/><polygon class="cls-5" points="689.62 117.6 688.79 110.65 686.77 110.65 685.94 117.6 689.62 117.6"/><rect class="cls-6" x="684.27" y="150.75" width="7.02" height="10.29"/><path class="cls-7" d="M824.7,638.68h-7v3.12c1.15.07,2.3.13,3.46.14h.41q1.59,0,3.15-.12Z" transform="translate(-133.41 -470.88)"/><polygon class="cls-4" points="693.14 118.46 692.56 118.86 695.06 133.7 696.43 134.68 693.14 118.46"/><polygon class="cls-2" points="696.43 134.68 695.06 133.7 697.45 147.85 699.05 147.62 696.43 134.68"/><polygon class="cls-6" points="699.05 147.62 697.45 147.85 698.82 155.98 700.48 154.68 699.05 147.62"/><polygon class="cls-8" points="698.82 155.98 700.85 168.08 703.32 168.74 700.48 154.68 698.82 155.98"/><path class="cls-7" d="M834.49,640.35c.76-.18,1.52-.38,2.27-.59l0-.14-2.47-.65Z" transform="translate(-133.41 -470.88)"/><polygon class="cls-9" points="689.44 100.14 689.41 100.14 689.43 100.22 689.45 100.2 689.44 100.14"/><polygon class="cls-5" points="691.39 109.77 691.02 109.71 692.56 118.86 693.14 118.46 691.39 109.77"/><polygon class="cls-3" points="689.45 100.2 689.43 100.22 691.02 109.71 691.39 109.77 689.45 100.2"/><polygon class="cls-10" points="682.29 124.92 681.48 124.67 681.34 125.35 682.23 125.3 682.29 124.92"/><polygon class="cls-2" points="682.13 125.87 681.12 126.44 676.16 150.91 677.96 150.65 682.13 125.87"/><polygon class="cls-6" points="682.23 125.3 681.34 125.35 681.12 126.44 682.13 125.87 682.23 125.3"/><polygon class="cls-6" points="677.96 150.65 676.16 150.91 674.13 160.98 676.13 161.51 677.96 150.65"/><polygon class="cls-11" points="682.61 123.04 682.13 121.45 681.48 124.67 682.29 124.92 682.61 123.04"/><path class="cls-12" d="M807.53,631.86l-1.59,7.9c.74.21,1.5.41,2.26.59l1.34-8Z" transform="translate(-133.41 -470.88)"/><polygon class="cls-9" points="686.47 100.14 686.44 100.14 685.99 102.38 686.1 102.31 686.47 100.14"/><polygon class="cls-5" points="685.03 108.68 684.72 108.63 682.13 121.45 682.61 123.04 685.03 108.68"/><polygon class="cls-3" points="686.1 102.31 685.99 102.38 684.72 108.63 685.03 108.68 686.1 102.31"/><path class="cls-13" d="M862.71,595.54a43.18,43.18,0,0,0,1.34-10.48c-.81,0-1.59.11-2.35.19-1.3.13-2.53.3-3.71.52a35.34,35.34,0,0,0-8.14,2.44,24.27,24.27,0,0,0-10,7.85,26.83,26.83,0,0,0-4.82,13.26,35.13,35.13,0,0,0,.26,8.77,20.43,20.43,0,0,0,1.45,5.22c.4.83.78,1.25,1.06,1.13a43.11,43.11,0,0,0,9.52-5.57c.6-.47,1.2-1,1.78-1.46a42.89,42.89,0,0,0,11.73-16.28A41.63,41.63,0,0,0,862.3,597C862.45,596.53,862.58,596,862.71,595.54Z" transform="translate(-133.41 -470.88)"/><path class="cls-13" d="M782.69,585.45c-1.29-.18-2.63-.31-4.05-.39a43.56,43.56,0,0,0,1.52,11.2q.2.71.42,1.41c.08.25.16.5.25.76a42.7,42.7,0,0,0,7.49,13.6,43.23,43.23,0,0,0,13.35,10.9c1,.54,2.1,1.05,3.19,1.51.38.16,1-.67,1.49-2.19A32.46,32.46,0,0,0,806,602.1a24.14,24.14,0,0,0-2.57-5.13,23.48,23.48,0,0,0-8.3-7.61l-.72-.4a33.7,33.7,0,0,0-9.36-3.13l-.43-.08h-.08l-.3,0Q783.49,585.56,782.69,585.45Z" transform="translate(-133.41 -470.88)"/><path class="cls-14" d="M849.85,588.21l2.5-15.54-1.88.28-14.11,9.67,3.52,13.44A24.27,24.27,0,0,1,849.85,588.21Z" transform="translate(-133.41 -470.88)"/><path class="cls-4" d="M839.88,596.06l-3.52-13.44-8.72,6,3.77,18.1,3.65,2.62A26.83,26.83,0,0,1,839.88,596.06Z" transform="translate(-133.41 -470.88)"/><path class="cls-10" d="M803.44,597l10-.65.24-1.15-18.54-5.81A23.48,23.48,0,0,1,803.44,597Z" transform="translate(-133.41 -470.88)"/><path class="cls-10" d="M780.58,597.67l-1.37.86,1.62-.1C780.74,598.17,780.66,597.92,780.58,597.67Z" transform="translate(-133.41 -470.88)"/><path class="cls-2" d="M806.35,622.25l1.73-.25,5-23.86-7,4A32.46,32.46,0,0,1,806.35,622.25Z" transform="translate(-133.41 -470.88)"/><path class="cls-2" d="M788.32,612,782,615.58l1.64,9.94,18-2.59A43.23,43.23,0,0,1,788.32,612Z" transform="translate(-133.41 -470.88)"/><path class="cls-2" d="M835.06,609.32l-3.65-2.62,2.43,11.6,1.48-.21A35.13,35.13,0,0,1,835.06,609.32Z" transform="translate(-133.41 -470.88)"/><path class="cls-2" d="M782,615.58,775.85,619a58.11,58.11,0,0,0,5.66,6.48h2.14Z" transform="translate(-133.41 -470.88)"/><path class="cls-6" d="M806,602.1l7-4,.38-1.82-10,.65A24.14,24.14,0,0,1,806,602.1Z" transform="translate(-133.41 -470.88)"/><path class="cls-6" d="M780.83,598.43l-1.62.1,2.8,17.05,6.31-3.55A42.7,42.7,0,0,1,780.83,598.43Z" transform="translate(-133.41 -470.88)"/><path class="cls-11" d="M779.21,598.53l-8.85,11.53a57.06,57.06,0,0,0,5.49,9l6.16-3.46Z" transform="translate(-133.41 -470.88)"/><path class="cls-15" d="M862.3,597l.75,1.93-.34-3.41C862.58,596,862.45,596.53,862.3,597Z" transform="translate(-133.41 -470.88)"/><path class="cls-15" d="M861.7,585.25l-1.36-13.79-7.41,1.12L858,585.77C859.17,585.55,860.4,585.38,861.7,585.25Z" transform="translate(-133.41 -470.88)"/><path class="cls-16" d="M780.16,596.26l-.95,2.27,1.37-.86Q780.35,597,780.16,596.26Z" transform="translate(-133.41 -470.88)"/><path class="cls-3" d="M860.86,601.13a42.89,42.89,0,0,1-11.73,16.28l16.46,3.24a57.68,57.68,0,0,0,3.76-5.26L863.05,599Z" transform="translate(-133.41 -470.88)"/><path class="cls-17" d="M858,585.77l-5.06-13.19-.58.09-2.5,15.54A35.34,35.34,0,0,1,858,585.77Z" transform="translate(-133.41 -470.88)"/><path class="cls-17" d="M860.86,601.13l2.19-2.18L862.3,597A41.63,41.63,0,0,1,860.86,601.13Z" transform="translate(-133.41 -470.88)"/><path class="cls-18" d="M765.11,593.13a57.81,57.81,0,0,0,1.21,6l12.89-.65Z" transform="translate(-133.41 -470.88)"/><path class="cls-6" d="M835.32,618.09l-1.48.21,1.31,6.28,1.62-1.27A20.43,20.43,0,0,1,835.32,618.09Z" transform="translate(-133.41 -470.88)"/><path class="cls-6" d="M804.86,624.44c-1.09-.46-2.15-1-3.19-1.51l-18,2.59,22.45,6,2-9.48-1.73.25C805.82,623.77,805.24,624.6,804.86,624.44Z" transform="translate(-133.41 -470.88)"/><path class="cls-19" d="M781.51,625.52c.31.31.63.6,1,.9l1.19-.9Z" transform="translate(-133.41 -470.88)"/><path class="cls-20" d="M766.32,599.18a56.25,56.25,0,0,0,4,10.88l8.85-11.53Z" transform="translate(-133.41 -470.88)"/><polygon class="cls-9" points="717.06 102.07 704.74 103.93 700.02 100.14 699.91 100.14 702.95 111.74 717.06 102.07"/><path class="cls-11" d="M794.42,589l.72.4,18.54,5.81,1.11-5.3-3.49-11.52Z" transform="translate(-133.41 -470.88)"/><path class="cls-8" d="M837.83,624.44c-.28.12-.66-.3-1.06-1.13l-1.62,1.27,3.08,14.75A57,57,0,0,0,857,629.23l-9.66-10.36A43.11,43.11,0,0,1,837.83,624.44Z" transform="translate(-133.41 -470.88)"/><path class="cls-21" d="M863.05,599l11.74,5.33a56.81,56.81,0,0,0,3.39-19.38c0-.25,0-.5,0-.75L878,584Z" transform="translate(-133.41 -470.88)"/><path class="cls-9" d="M861.7,585.25c.76-.08,1.54-.15,2.35-.19a43.18,43.18,0,0,1-1.34,10.48l.34,3.41L878,584l-11.67-10.09L863,571.05l-2.69.41Z" transform="translate(-133.41 -470.88)"/><path class="cls-22" d="M847.35,618.87,857,629.23a57.52,57.52,0,0,0,8.58-8.58l-16.46-3.24C848.55,617.91,848,618.4,847.35,618.87Z" transform="translate(-133.41 -470.88)"/><path class="cls-23" d="M869.35,615.39a56.11,56.11,0,0,0,5.44-11.11L863.05,599Z" transform="translate(-133.41 -470.88)"/><path class="cls-7" d="M782.46,626.42c.48.46,1,.9,1.46,1.33l-.27-2.23Z" transform="translate(-133.41 -470.88)"/><path class="cls-12" d="M783.92,627.75a57.08,57.08,0,0,0,20.54,11.58l1.64-7.85-22.45-6Z" transform="translate(-133.41 -470.88)"/><path class="cls-24" d="M764.53,585.82a56.75,56.75,0,0,0,.58,7.31l14.1,5.4Z" transform="translate(-133.41 -470.88)"/><path class="cls-25" d="M780.16,596.26a43.56,43.56,0,0,1-1.52-11.2c1.42.08,2.76.21,4.05.39l-17.94-5.63c-.15,1.68-.24,3.37-.24,5.08,0,.31,0,.62,0,.92l14.68,12.71Z" transform="translate(-133.41 -470.88)"/><polygon class="cls-9" points="684.68 103.2 685.32 100.14 675.68 100.14 677.9 107.47 684.68 103.2"/><path class="cls-26" d="M789.4,573.16l-4.85,12.58h.08L795.13,571h-2.46l-1.61,1.26Z" transform="translate(-133.41 -470.88)"/><polygon class="cls-5" points="681.38 118.99 683.59 108.44 677.9 107.47 681.38 118.99"/><polygon class="cls-5" points="692.61 109.98 694.23 117.72 702.95 111.74 692.61 109.98"/><polygon class="cls-3" points="683.59 108.44 684.68 103.2 677.9 107.47 683.59 108.44"/><polygon class="cls-3" points="699.91 100.14 690.56 100.14 692.61 109.98 702.95 111.74 699.91 100.14"/><path class="cls-27" d="M784.25,585.69l-4.76-7.26-3.85,2.05-10.76-2c0,.44-.09.89-.13,1.34l17.94,5.63Q783.49,585.55,784.25,585.69Z" transform="translate(-133.41 -470.88)"/><path class="cls-23" d="M784.25,585.69l.3,0,4.85-12.58-9.91,5.27Z" transform="translate(-133.41 -470.88)"/><path class="cls-3" d="M785.06,585.83l26.24-7.48L809.08,571h-14l-10.5,14.73Z" transform="translate(-133.41 -470.88)"/><path class="cls-4" d="M811.3,578.35l-26.24,7.48a33.7,33.7,0,0,1,9.36,3.13Z" transform="translate(-133.41 -470.88)"/><path class="cls-10" d="M816.77,531,800,532.11a57.52,57.52,0,0,0-9.34,4.88l11.13,3.49Z" transform="translate(-133.41 -470.88)"/><path class="cls-6" d="M816.29,528.12a57,57,0,0,0-16.34,4L816.77,531Z" transform="translate(-133.41 -470.88)"/><path class="cls-11" d="M819.15,527.93c-1,0-1.92.1-2.86.19l.48,2.91Z" transform="translate(-133.41 -470.88)"/><path class="cls-16" d="M801.74,540.48l9.12,2.86.84-.2L816.77,531Z" transform="translate(-133.41 -470.88)"/><path class="cls-18" d="M848.38,543.14,852,537A56.84,56.84,0,0,0,836.68,530l-19.91,1Z" transform="translate(-133.41 -470.88)"/><path class="cls-20" d="M836.68,530a56.83,56.83,0,0,0-15.13-2.15h-.41c-.67,0-1.33,0-2,.06l-2.38,3.1Z" transform="translate(-133.41 -470.88)"/><path class="cls-11" d="M801.74,540.48,790.61,537a57.78,57.78,0,0,0-8.26,6.5l2.33,7.72Z" transform="translate(-133.41 -470.88)"/><path class="cls-28" d="M866.22,550a57.31,57.31,0,0,0-7.56-8l-4.74,3.3Z" transform="translate(-133.41 -470.88)"/><path class="cls-29" d="M848.38,543.14l5.54,2.12,4.74-3.3a57,57,0,0,0-6.65-5Z" transform="translate(-133.41 -470.88)"/><path class="cls-30" d="M850.47,573l1.88-.28.58-.09,7.41-1.12,2.69-.41-1.85-1.6c.2.52.39,1,.57,1.57H838.91l-.76,3.8Z" transform="translate(-133.41 -470.88)"/><polygon class="cls-31" points="705.5 100.14 700.02 100.14 704.74 103.93 705.5 100.14"/><path class="cls-31" d="M848.38,543.14l-3.51,6c.59.39,1.16.8,1.73,1.22l7.32-5.11Z" transform="translate(-133.41 -470.88)"/><path class="cls-24" d="M816.77,531l13.92,12a42.93,42.93,0,0,1,14.18,6.08l3.51-6Z" transform="translate(-133.41 -470.88)"/><path class="cls-32" d="M853.49,556.72a43.05,43.05,0,0,1,7.69,12.73l1.85,1.6,3.33,2.89,8.7-7.64c-.37-1.08-.76-2.14-1.2-3.19Z" transform="translate(-133.41 -470.88)"/><path class="cls-31" d="M878,584l.13.12a56.64,56.64,0,0,0-3.1-17.85l-8.7,7.64Z" transform="translate(-133.41 -470.88)"/><path class="cls-25" d="M811.7,543.14a41.36,41.36,0,0,1,19-.07l-13.92-12Z" transform="translate(-133.41 -470.88)"/><path class="cls-33" d="M846.6,550.37a43.2,43.2,0,0,1,6.89,6.35l20.37,6.39A56.78,56.78,0,0,0,866.22,550l-12.3-4.71Z" transform="translate(-133.41 -470.88)"/><line class="cls-34" x1="729.62" y1="100.17" x2="732.96" y2="103.05"/><line class="cls-35" x1="732.96" y1="103.05" x2="744.62" y2="113.15"/><line class="cls-35" x1="744.62" y1="113.15" x2="744.76" y2="113.26"/><path class="cls-9" d="M770,560.43a57.07,57.07,0,0,0-2.69,6.79l13.92,3a42.81,42.81,0,0,1,5.89-10.9l-2.45-8.08Z" transform="translate(-133.41 -470.88)"/><polygon class="cls-9" points="657.65 101.4 657.27 100.14 651.75 100.14 657.65 101.4"/><polygon class="cls-26" points="659.26 100.14 658.55 100.14 657.65 101.4 659.26 100.14"/><path class="cls-3" d="M767.32,567.22a55.92,55.92,0,0,0-1.86,7.34l25.6-2.28-5.9-1.26h-4.22l.3-.83Z" transform="translate(-133.41 -470.88)"/><path class="cls-36" d="M779.49,578.43l9.91-5.27,1.66-.88-25.6,2.28c-.23,1.29-.43,2.59-.58,3.92l10.76,2Z" transform="translate(-133.41 -470.88)"/><path class="cls-5" d="M782.35,543.49a55.85,55.85,0,0,0-5.76,6.34l8.09,1.38Z" transform="translate(-133.41 -470.88)"/><path class="cls-3" d="M776.59,549.83a57.1,57.1,0,0,0-6.58,10.6l14.67-9.22Z" transform="translate(-133.41 -470.88)"/><path class="cls-3" d="M787.13,559.29a42.83,42.83,0,0,1,17.17-13.67l-19.62,5.59Z" transform="translate(-133.41 -470.88)"/><polygon class="cls-3" points="658.55 100.14 657.27 100.14 657.65 101.4 658.55 100.14"/><path class="cls-4" d="M784.68,551.21l19.62-5.59a43.09,43.09,0,0,1,6.56-2.28l-9.12-2.86Z" transform="translate(-133.41 -470.88)"/><path class="cls-37" d="M821.32,470.88l77.87,31.69v1.64L899.07,542c2,5.61,3.18,15.37,3.53,22.72a2,2,0,0,1-2,2.09h-6a2,2,0,0,1-2-2.09c.35-7.35,1.79-18.14,3.53-22.72V503.37l-14.26,3.76-5.62,1.48v43.16A58.44,58.44,0,0,0,823.93,519h-4.61a58.44,58.44,0,0,0-52.74,33.59h-.19v-44l-5.63-1.48-17.3-4.56Z" transform="translate(-133.41 -470.88)"/><path class="cls-37" d="M748.31,708.32H736l-2,5.31h-9.43L739,677.14h6.28l15,36.49h-9.95Zm-8.81-9-.31.82h6l-.21-.61-2.78-7.84Z" transform="translate(-133.41 -470.88)"/><path class="cls-37" d="M780.31,677.56c8.76,0,13,11.38,6.08,16.28,3.81,2,5.36,5.1,5.36,8.14,0,5.82-4,11.65-11.54,11.65h-16.6V677.56Zm-8,13H779c3,0,2.94-5.05.1-5.05h-6.75Zm0,14.69h7.89c3.71,0,3.71-6.55,0-6.55h-7.89Z" transform="translate(-133.41 -470.88)"/><path class="cls-37" d="M802.52,713.63V685.8h-9.74v-8.24H821v8.24h-9.69v27.83Z" transform="translate(-133.41 -470.88)"/><path class="cls-37" d="M838,677a18.58,18.58,0,1,1-18.66,18.65A18.5,18.5,0,0,1,838,677Zm9.84,18.65c0-13.6-19.74-13.65-19.74,0S847.86,709.14,847.86,695.64Z" transform="translate(-133.41 -470.88)"/><path class="cls-37" d="M882.43,677.56v28H889v-28h9v28h6.5v-28h9.07v36.07h-40.2V677.56Z" transform="translate(-133.41 -470.88)"/><path class="cls-37" d="M948.59,678.07l-12.78,17.42,14,17.67v.47H938.85l-10.72-14v14h-8.81V677.56h8.81v14l10-14h10.46Z" transform="translate(-133.41 -470.88)"/><path class="cls-37" d="M968,677a18.58,18.58,0,1,1-18.65,18.65A18.5,18.5,0,0,1,968,677Zm9.85,18.65c0-13.6-19.74-13.65-19.74,0S977.81,709.14,977.81,695.64Z" transform="translate(-133.41 -470.88)"/><path class="cls-37" d="M1007.8,699.51l-2.79-7.84-2.68,7.63-5.51,14.33h-9.43l14.43-36.49h6.28l15,36.49h-10Z" transform="translate(-133.41 -470.88)"/><path class="cls-37" d="M1048.35,708.32H1036l-2,5.31h-9.43L1039,677.14h6.29l15,36.49h-9.94Zm-8.81-9-.31.82h6l-.2-.61-2.78-7.84Z" transform="translate(-133.41 -470.88)"/></svg>